<svg width="100" height="88" xmlns="http://www.w3.org/2000/svg" xmlns:xlink="http://www.w3.org/1999/xlink" xml:space="preserve" overflow="hidden"><defs><clipPath id="clip0"><rect x="590" y="316" width="100" height="88"/></clipPath></defs><g clip-path="url(#clip0)" transform="translate(-590 -316)"><path d="M689.786 360C689.786 353.233 679.201 348.228 665.109 345.533 666.259 342.225 667.205 339.023 667.861 336.033 670.045 326.051 668.989 319.249 664.893 316.884 663.878 316.299 662.709 316 661.418 316 655.822 316 648.016 321.641 640.001 330.936 631.99 321.641 624.183 316 618.582 316 617.294 316 616.123 316.299 615.106 316.884 609.24 320.27 610.209 331.96 614.932 345.528 600.82 348.217 590.214 353.226 590.214 360 590.214 366.769 600.803 371.771 614.898 374.468 613.742 377.777 612.797 380.976 612.143 383.966 609.958 393.95 611.012 400.751 615.106 403.115 616.123 403.701 617.294 403.997 618.582 403.997 624.183 403.997 631.989 398.354 640.001 389.063 648.013 398.354 655.819 403.999 661.418 403.999 662.709 403.999 663.879 403.701 664.893 403.115 668.989 400.751 670.045 393.95 667.86 383.966 667.205 380.976 666.259 377.777 665.106 374.468 679.201 371.772 689.786 366.769 689.786 360ZM661.418 318.573C662.252 318.573 662.99 318.759 663.607 319.114 666.61 320.847 667.243 326.813 665.347 335.483 664.689 338.492 663.726 341.72 662.545 345.072 658.397 344.38 653.997 343.883 649.505 343.588 646.944 339.718 644.321 336.156 641.705 332.964 649.253 324.141 656.575 318.573 661.418 318.573ZM652.259 367.074C650.89 369.443 649.477 371.738 648.035 373.944 645.45 374.076 642.771 374.15 640.001 374.15 637.231 374.15 634.55 374.076 631.969 373.944 630.523 371.737 629.111 369.443 627.745 367.074 626.363 364.678 625.087 362.323 623.912 360.023 625.111 357.665 626.379 355.291 627.747 352.924 629.111 350.557 630.525 348.264 631.969 346.053 634.55 345.922 637.231 345.848 640.001 345.848 642.771 345.848 645.451 345.922 648.035 346.053 649.477 348.265 650.889 350.557 652.256 352.924 653.62 355.284 654.885 357.651 656.082 360 654.885 362.351 653.621 364.718 652.259 367.074ZM657.496 362.867C659.076 366.156 660.483 369.397 661.678 372.545 658.442 373.064 654.949 373.467 651.235 373.743 652.334 372.001 653.419 370.205 654.486 368.362 655.543 366.533 656.536 364.697 657.496 362.867ZM646.267 376.588C644.208 379.594 642.103 382.417 640.001 384.996 637.901 382.416 635.799 379.593 633.734 376.588 635.82 376.676 637.912 376.725 640.001 376.725 642.091 376.724 644.184 376.676 646.267 376.588ZM628.769 373.743C625.052 373.467 621.559 373.063 618.324 372.545 619.521 369.402 620.924 366.159 622.503 362.867 623.469 364.717 624.474 366.552 625.516 368.362 626.583 370.205 627.668 372.001 628.769 373.743ZM622.492 357.161C620.863 353.786 619.459 350.536 618.285 347.461 621.531 346.944 625.036 346.534 628.769 346.255 627.667 347.998 626.582 349.792 625.515 351.639 624.453 353.478 623.459 355.324 622.492 357.161ZM633.738 343.415C635.799 340.409 637.901 337.585 640.001 335.002 642.103 337.585 644.208 340.409 646.267 343.415 644.183 343.324 642.091 343.276 640.001 343.276 637.912 343.277 635.82 343.324 633.738 343.415ZM654.486 351.639C653.42 349.787 652.335 347.998 651.235 346.255 654.949 346.534 658.442 346.939 661.678 347.455 660.483 350.598 659.076 353.846 657.496 357.135 656.536 355.305 655.543 353.468 654.486 351.639ZM616.396 319.114C617.012 318.756 617.75 318.573 618.582 318.573 623.425 318.573 630.747 324.141 638.297 332.964 635.683 336.156 633.058 339.718 630.497 343.588 625.99 343.883 621.573 344.387 617.409 345.082 612.544 331.347 612.395 321.422 616.396 319.114ZM592.788 360C592.788 355.382 601.458 350.547 615.785 347.893 617.266 351.85 619.039 355.927 621.04 359.981 618.987 364.103 617.213 368.174 615.74 372.095 601.437 369.443 592.788 364.612 592.788 360ZM618.582 401.426C617.738 401.426 617.025 401.249 616.396 400.89 613.394 399.156 612.759 393.19 614.657 384.519 615.316 381.509 616.276 378.277 617.459 374.927 621.607 375.62 626.008 376.117 630.495 376.412 633.058 380.28 635.68 383.842 638.295 387.037 630.748 395.859 623.425 401.426 618.582 401.426ZM665.343 384.518C667.242 393.189 666.609 399.155 663.607 400.889 662.987 401.243 662.252 401.426 661.418 401.426 656.575 401.426 649.253 395.858 641.705 387.036 644.321 383.841 646.944 380.279 649.508 376.411 653.997 376.116 658.397 375.619 662.545 374.926 663.726 378.277 664.689 381.508 665.343 384.518ZM664.261 372.096C662.792 368.18 661.021 364.117 658.974 360 661.021 355.883 662.792 351.819 664.263 347.905 678.563 350.558 687.214 355.391 687.214 360 687.214 364.612 678.563 369.443 664.261 372.096Z" fill="#1E90FF"/><path d="M645.469 360C645.469 363.02 643.021 365.468 640.001 365.468 636.981 365.468 634.533 363.02 634.533 360 634.533 356.979 636.981 354.531 640.001 354.531 643.021 354.531 645.469 356.979 645.469 360Z" fill="#1E90FF"/></g></svg>